<svg xmlns="http://www.w3.org/2000/svg" viewBox="0 0 480 480"><path d="M400,344a96,96,0,1,0-33.1-186.1A48,48,0,0,0,320,120h-.1A108,108,0,0,0,104,124a116.9,116.9,0,0,0,.8,13.2A104,104,0,0,0,120,344h64v40H144v16h48a8,8,0,0,0,8-8V344h16v16h16V344h16V448H232v16h24a8,8,0,0,0,8-8V344h16v32h16V344h16v80a8,8,0,0,0,8,8h40V416H328V344h16v48a8,8,0,0,0,8,8h48V384H360V344ZM32,240a88.1,88.1,0,0,1,82.6-87.7,8.2,8.2,0,0,0,5.8-3.1,8,8,0,0,0,1.5-6.5A89.9,89.9,0,0,1,120,124a92,92,0,0,1,184,0c0,.9-.1,1.8-.1,2.6v1.9a7.7,7.7,0,0,0,2.8,6.5,7.9,7.9,0,0,0,6.8,1.7A32.1,32.1,0,0,1,352,167.8c0,.3-.2,1.4-.2,1.6a8,8,0,0,0,3.7,7.1,8.1,8.1,0,0,0,8,.4A78.7,78.7,0,0,1,400,168a80,80,0,0,1,0,160H120A88.1,88.1,0,0,1,32,240Z" transform="translate(-16 -16)"/><path d="M234.7,59.9A67.3,67.3,0,0,0,212,56V72a50.8,50.8,0,0,1,17.3,3Z" transform="translate(-16 -16)"/><path d="M194.7,75l-5.4-15.1A68.2,68.2,0,0,0,144,124h16A52,52,0,0,1,194.7,75Z" transform="translate(-16 -16)"/><path d="M290.3,206.5l-14.2-5.9a74.3,74.3,0,0,0-3.4-8.2l5.9-14.2a8.2,8.2,0,0,0-1-8,90.9,90.9,0,0,0-15.8-15.8,8.2,8.2,0,0,0-8-1l-14.2,5.9a58.5,58.5,0,0,0-8.2-3.3l-5.9-14.3a7.8,7.8,0,0,0-6.3-4.9,75.8,75.8,0,0,0-22.3,0,7.8,7.8,0,0,0-6.4,4.9L184.6,156a63.8,63.8,0,0,0-8.2,3.3l-14.2-5.9a8.2,8.2,0,0,0-8,1,90.9,90.9,0,0,0-15.8,15.8,8.2,8.2,0,0,0-1,8l5.9,14.2a82.6,82.6,0,0,0-3.3,8.2l-14.3,5.9a8,8,0,0,0-4.9,6.4,77.4,77.4,0,0,0,0,22.2,7.8,7.8,0,0,0,4.9,6.4l14.3,5.9a63.8,63.8,0,0,0,3.3,8.2l-5.9,14.2a8.2,8.2,0,0,0,1,8,90.9,90.9,0,0,0,15.8,15.8,8.2,8.2,0,0,0,8,1l14.2-5.9a63.8,63.8,0,0,0,8.2,3.3l5.9,14.3a7.8,7.8,0,0,0,6.4,4.9,77.4,77.4,0,0,0,22.2,0,7.8,7.8,0,0,0,6.4-4.9l5.9-14.3a58.5,58.5,0,0,0,8.2-3.3l14.2,5.9a8.2,8.2,0,0,0,8-1,90.9,90.9,0,0,0,15.8-15.8,8.2,8.2,0,0,0,1-8l-5.9-14.2a63.8,63.8,0,0,0,3.3-8.2l14.3-5.9a7.8,7.8,0,0,0,4.9-6.4,77.4,77.4,0,0,0,0-22.2,7.8,7.8,0,0,0-4.9-6.4Zm-10.5,22.1L266.5,234a8.3,8.3,0,0,0-4.7,5.2,53.8,53.8,0,0,1-4.9,12.1,7.8,7.8,0,0,0-.4,7l5.5,13.2a66.5,66.5,0,0,1-6.5,6.5l-13.2-5.5a7.8,7.8,0,0,0-7,.4,53.8,53.8,0,0,1-12.1,4.9,8.1,8.1,0,0,0-5.2,4.7l-5.5,13.3a46.1,46.1,0,0,1-9.1,0L198,282.5a8.3,8.3,0,0,0-5.2-4.7,53.8,53.8,0,0,1-12.1-4.9,7.9,7.9,0,0,0-7-.4L160.5,278a66.5,66.5,0,0,1-6.5-6.5l5.5-13.2a7.8,7.8,0,0,0-.4-7,59.2,59.2,0,0,1-5-12.1,7.9,7.9,0,0,0-4.6-5.2l-13.3-5.4c-.1-1.6-.2-3.1-.2-4.6s.1-3,.2-4.6l13.3-5.4a8.3,8.3,0,0,0,4.7-5.2,53.8,53.8,0,0,1,4.9-12.1,7.8,7.8,0,0,0,.4-7L154,176.5a66.5,66.5,0,0,1,6.5-6.5l13.2,5.5a7.8,7.8,0,0,0,7-.4,53.8,53.8,0,0,1,12.1-4.9,8.3,8.3,0,0,0,5.2-4.7l5.4-13.3a47.1,47.1,0,0,1,9.2,0l5.4,13.3a8.3,8.3,0,0,0,5.2,4.7,53.8,53.8,0,0,1,12.1,4.9,7.8,7.8,0,0,0,7,.4l13.2-5.5a66.5,66.5,0,0,1,6.5,6.5l-5.5,13.2a7.8,7.8,0,0,0,.4,7,53.8,53.8,0,0,1,4.9,12.1,8.3,8.3,0,0,0,4.7,5.2l13.3,5.4c.1,1.6.2,3.1.2,4.6s-.1,3-.2,4.6Z" transform="translate(-16 -16)"/><path d="M389.8,290.4l7.8,4.5,8-13.8-7.8-4.5a35,35,0,0,0,1.4-4.6H408V256h-8.8a35,35,0,0,0-1.4-4.6l7.8-4.5-8-13.8-7.8,4.5c-1.1-1.2-2.2-2.3-3.4-3.4l4.5-7.8-13.8-8-4.5,7.8a35,35,0,0,0-4.6-1.4V216H352v8.8a35,35,0,0,0-4.6,1.4l-4.5-7.8-13.8,8,4.5,7.8c-1.2,1.1-2.3,2.2-3.4,3.4l-7.8-4.5-8,13.8,7.8,4.5a35,35,0,0,0-1.4,4.6H312v16h8.8a35,35,0,0,0,1.4,4.6l-7.8,4.5,8,13.8,7.8-4.5c1.1,1.2,2.2,2.3,3.4,3.4l-4.5,7.8,13.8,8,4.5-7.8a35,35,0,0,0,4.6,1.4V312h16v-8.8a35,35,0,0,0,4.6-1.4l4.5,7.8,13.8-8-4.5-7.8C387.6,292.7,388.7,291.6,389.8,290.4ZM360,288a24,24,0,1,1,24-24A24.1,24.1,0,0,1,360,288Z" transform="translate(-16 -16)"/><path d="M208,184a40,40,0,1,0,40,40A40,40,0,0,0,208,184Zm0,64a24,24,0,1,1,24-24A24.1,24.1,0,0,1,208,248Z" transform="translate(-16 -16)"/><path d="M104,384h24v16H104Z" transform="translate(-16 -16)"/><path d="M232,424V376H216v40H184v16h40A8,8,0,0,0,232,424Z" transform="translate(-16 -16)"/><path d="M144,416h24v16H144Z" transform="translate(-16 -16)"/><path d="M104,416h24v16H104Z" transform="translate(-16 -16)"/><path d="M152,448h64v16H152Z" transform="translate(-16 -16)"/><path d="M120,480h16v16H120Z" transform="translate(-16 -16)"/><path d="M152,480h16v16H152Z" transform="translate(-16 -16)"/><path d="M184,480h16v16H184Z" transform="translate(-16 -16)"/><path d="M280,480H216v16h72a8,8,0,0,0,8-8V448H280Z" transform="translate(-16 -16)"/><path d="M280,392h16v40H280Z" transform="translate(-16 -16)"/><path d="M62.5,400H88V384H62.5a24,24,0,1,0,0,16ZM32,392a8,8,0,1,1,8,8A8,8,0,0,1,32,392Z" transform="translate(-16 -16)"/><path d="M376,416h24v16H376Z" transform="translate(-16 -16)"/><path d="M416,416h24v16H416Z" transform="translate(-16 -16)"/><path d="M472,368a23.9,23.9,0,0,0-22.5,16H416v16h33.5A23.9,23.9,0,1,0,472,368Zm0,32a8,8,0,1,1,8-8A8,8,0,0,1,472,400Z" transform="translate(-16 -16)"/><path d="M64,432a24,24,0,1,0,22.5,32H136V448H86.5A23.9,23.9,0,0,0,64,432Zm0,32a8,8,0,1,1,8-8A8,8,0,0,1,64,464Z" transform="translate(-16 -16)"/></svg>