<svg xmlns="http://www.w3.org/2000/svg" viewBox="0 0 400 480"><path d="M145.2,151.1c-11.2-2-21.5-4.4-30.8-7a8,8,0,1,0-4.5,15.4h.1c9.8,2.8,20.7,5.2,32.4,7.3l1.4.2a8.1,8.1,0,0,0,8-8.1A8,8,0,0,0,145.2,151.1Z" transform="translate(-56 -16)"/><path d="M176.5,155.7a8,8,0,1,0-2.3,15.8h.5A689.9,689.9,0,0,0,256,176a708.5,708.5,0,0,0,81.1-4.4,8.1,8.1,0,0,0,7.3-8.7,8,8,0,0,0-8.6-7.3h-.5A699.8,699.8,0,0,1,256,160,703.4,703.4,0,0,1,176.5,155.7Z" transform="translate(-56 -16)"/><path d="M176.5,283.7a8,8,0,1,0-2.3,15.8h.5A689.9,689.9,0,0,0,256,304a708.5,708.5,0,0,0,81.1-4.4,8.1,8.1,0,0,0,7.3-8.7,8,8,0,0,0-8.6-7.3h-.5A699.8,699.8,0,0,1,256,288,703.4,703.4,0,0,1,176.5,283.7Z" transform="translate(-56 -16)"/><path d="M335.3,411.7A699.8,699.8,0,0,1,256,416a703.4,703.4,0,0,1-79.5-4.3,8,8,0,1,0-2.3,15.8h.5A689.9,689.9,0,0,0,256,432a708.5,708.5,0,0,0,81.1-4.4,8.1,8.1,0,0,0,7.3-8.7,8,8,0,0,0-8.6-7.3Z" transform="translate(-56 -16)"/><path d="M145.2,279.1c-11.2-2-21.5-4.4-30.8-7a8,8,0,1,0-4.5,15.4h.1c9.8,2.8,20.7,5.2,32.4,7.3l1.4.2a8.1,8.1,0,0,0,8-8.1A8,8,0,0,0,145.2,279.1Z" transform="translate(-56 -16)"/><path d="M145.2,407.1c-11.2-2-21.5-4.4-30.8-7a8,8,0,1,0-4.5,15.4h.1c9.8,2.8,20.7,5.2,32.4,7.3l1.4.2a8.1,8.1,0,0,0,8-8.1A8,8,0,0,0,145.2,407.1Z" transform="translate(-56 -16)"/><path d="M393.1,25.5A873.6,873.6,0,0,0,256,16a873.6,873.6,0,0,0-137.1,9.5C63.2,34.8,56,46.7,56,56V440c0,36.8,100.6,56,200,56s200-19.2,200-56V56C456,46.7,448.8,34.8,393.1,25.5ZM440,312c0,16.3-71.7,40-184,40S72,328.3,72,312V214.5C108.2,236.2,197.6,240,256,240s147.8-3.8,184-25.5Zm0-120c0,13.3-57.1,32-184,32S72,205.3,72,192V86.5C108.2,108.2,197.6,112,256,112s147.8-3.8,184-25.5ZM72,56.6C77.9,48.1,138.6,32,256,32S434.1,48.1,440,56.6V64c0,13.3-57.1,32-184,32S72,77.3,72,64ZM256,480c-112.3,0-184-23.7-184-40V335.4C104.2,356.9,180.4,368,256,368s151.8-11.1,184-32.6V440C440,456.3,368.3,480,256,480Z" transform="translate(-56 -16)"/></svg>