<svg xmlns="http://www.w3.org/2000/svg" viewBox="0 0 480 480"><path d="M464,16a32,32,0,0,0-32,32V194.9a31.5,31.5,0,0,0-34.9,15l-5.1,8.8V152a8,8,0,0,0-8-8H360V128h24a8,8,0,0,0,8-8V24a8,8,0,0,0-8-8H128a8,8,0,0,0-8,8v96a8,8,0,0,0,8,8h24v16H128a8,8,0,0,0-8,8v66.7l-5.1-8.8a31.5,31.5,0,0,0-34.9-15V48a32,32,0,0,0-64,0V316.2a40.2,40.2,0,0,0,9.6,26l24.6,28.7A24.1,24.1,0,0,1,56,386.5V432H48a8,8,0,0,0-8,8v48a8,8,0,0,0,8,8H176a8,8,0,0,0,8-8V440a8,8,0,0,0-8-8h-8V312.6a39.3,39.3,0,0,0-5.4-20L141.5,256h229l-21.1,36.6a38.7,38.7,0,0,0-5.4,20V432h-8a8,8,0,0,0-8,8v48a8,8,0,0,0,8,8H464a8,8,0,0,0,8-8V440a8,8,0,0,0-8-8h-8V386.5a24.1,24.1,0,0,1,5.8-15.6l24.6-28.7a40.2,40.2,0,0,0,9.6-26V48A32,32,0,0,0,464,16ZM168,480H56V448H168ZM152,312.6V432H72V386.5a40,40,0,0,0-9.6-26L37.8,331.8A24.3,24.3,0,0,1,32,316.2V48a16,16,0,0,1,32,0V204.1a31.6,31.6,0,0,0-4.5,37.8l52,90.1a8,8,0,0,0,13.9-8l-52-90.1a16,16,0,0,1,27.7-16l47.7,82.7A24,24,0,0,1,152,312.6ZM136,32H376v80H136Zm32,96H344v16H168Zm-32,32H376v80H136ZM456,480H344V448H456Zm24-163.8a24.3,24.3,0,0,1-5.8,15.6l-24.6,28.7a40,40,0,0,0-9.6,26V432H360V312.6a24,24,0,0,1,3.2-12l47.7-82.7a16,16,0,0,1,27.8,15.8c0,.1,0,.2-.1.2l-52,90.1a8,8,0,0,0,2.9,10.9,7.9,7.9,0,0,0,10.9-2.8.1.1,0,0,0,.1-.1l52-90.1a31.6,31.6,0,0,0-4.5-37.8V48a16,16,0,0,1,32,0Z" transform="translate(-16 -16)"/><path d="M176,48a24,24,0,1,0,24,24A23.9,23.9,0,0,0,176,48Zm0,32a8,8,0,1,1,8-8A8,8,0,0,1,176,80Z" transform="translate(-16 -16)"/><path d="M240,48a24,24,0,1,0,24,24A23.9,23.9,0,0,0,240,48Zm0,32a8,8,0,1,1,8-8A8,8,0,0,1,240,80Z" transform="translate(-16 -16)"/><path d="M304,48H288a8,8,0,0,0,0,16h16a8,8,0,0,0,0-16Z" transform="translate(-16 -16)"/><path d="M304,80H288a8,8,0,0,0,0,16h16a8,8,0,0,0,0-16Z" transform="translate(-16 -16)"/><path d="M352,48H336a8,8,0,0,0,0,16h16a8,8,0,0,0,0-16Z" transform="translate(-16 -16)"/><path d="M352,80H336a8,8,0,0,0,0,16h16a8,8,0,0,0,0-16Z" transform="translate(-16 -16)"/><path d="M176,176a24,24,0,1,0,24,24A23.9,23.9,0,0,0,176,176Zm0,32a8,8,0,1,1,8-8A8,8,0,0,1,176,208Z" transform="translate(-16 -16)"/><path d="M240,176a24,24,0,1,0,24,24A23.9,23.9,0,0,0,240,176Zm0,32a8,8,0,1,1,8-8A8,8,0,0,1,240,208Z" transform="translate(-16 -16)"/><path d="M304,176H288a8,8,0,0,0,0,16h16a8,8,0,0,0,0-16Z" transform="translate(-16 -16)"/><path d="M304,208H288a8,8,0,0,0,0,16h16a8,8,0,0,0,0-16Z" transform="translate(-16 -16)"/><path d="M352,176H336a8,8,0,0,0,0,16h16a8,8,0,0,0,0-16Z" transform="translate(-16 -16)"/><path d="M352,208H336a8,8,0,0,0,0,16h16a8,8,0,0,0,0-16Z" transform="translate(-16 -16)"/><path d="M152,456H136a8,8,0,0,0,0,16h16a8,8,0,0,0,0-16Z" transform="translate(-16 -16)"/><path d="M360,472h16a8,8,0,0,0,0-16H360a8,8,0,0,0,0,16Z" transform="translate(-16 -16)"/></svg>