<svg xmlns="http://www.w3.org/2000/svg" viewBox="0 0 512 512"><path d="M473.6,0H38.4A38.4,38.4,0,0,0,0,38.4V473.6A38.4,38.4,0,0,0,38.4,512H473.6A38.4,38.4,0,0,0,512,473.6V38.4A38.4,38.4,0,0,0,473.6,0Zm21.3,473.6a21.3,21.3,0,0,1-21.3,21.3H38.4a21.3,21.3,0,0,1-21.3-21.3V38.4A21.3,21.3,0,0,1,38.4,17.1H473.6a21.3,21.3,0,0,1,21.3,21.3Z"/><path d="M76.8,34.1H42.7a8.7,8.7,0,0,0-8.6,8.6V76.8a8.6,8.6,0,0,0,8.6,8.5H76.8a8.5,8.5,0,0,0,8.5-8.5V42.7A8.6,8.6,0,0,0,76.8,34.1ZM68.3,68.3H51.2V51.2H68.3Z"/><path d="M145.1,34.1H110.9a8.6,8.6,0,0,0-8.5,8.6V76.8a8.5,8.5,0,0,0,8.5,8.5h34.2a8.5,8.5,0,0,0,8.5-8.5V42.7A8.6,8.6,0,0,0,145.1,34.1Zm-8.6,34.2h-17V51.2h17Z"/><path d="M213.3,34.1H179.2a8.6,8.6,0,0,0-8.5,8.6V76.8a8.5,8.5,0,0,0,8.5,8.5h34.1a8.6,8.6,0,0,0,8.6-8.5V42.7A8.7,8.7,0,0,0,213.3,34.1Zm-8.5,34.2H187.7V51.2h17.1Z"/><path d="M473.6,0H38.4A38.4,38.4,0,0,0,0,38.4v72.5a8.6,8.6,0,0,0,8.5,8.6h495a8.6,8.6,0,0,0,8.5-8.6V38.4A38.4,38.4,0,0,0,473.6,0Zm21.3,102.4H17.1v-64A21.3,21.3,0,0,1,38.4,17.1H473.6a21.3,21.3,0,0,1,21.3,21.3Z"/><path d="M119.5,145.1H51.2a8.5,8.5,0,0,0-8.5,8.5v68.3a8.5,8.5,0,0,0,8.5,8.5h68.3a8.5,8.5,0,0,0,8.5-8.5V153.6A8.5,8.5,0,0,0,119.5,145.1Zm-8.6,68.2H59.7V162.1h51.2Z"/><path d="M349.9,145.1H281.6a8.5,8.5,0,0,0-8.5,8.5V273.1a8.5,8.5,0,0,0,8.5,8.5h68.3a8.5,8.5,0,0,0,8.5-8.5V153.6A8.5,8.5,0,0,0,349.9,145.1Zm-8.6,119.4H290.1V162.1h51.2Z"/><path d="M349.9,298.7H281.6a8.5,8.5,0,0,0-8.5,8.5v51.2a8.5,8.5,0,0,0,8.5,8.5h68.3a8.5,8.5,0,0,0,8.5-8.5V307.2A8.5,8.5,0,0,0,349.9,298.7Zm-8.6,51.2H290.1V315.7h51.2Z"/><path d="M230.4,145.1H162.1a8.5,8.5,0,0,0-8.5,8.5v85.3a8.6,8.6,0,0,0,8.5,8.6h68.3a8.6,8.6,0,0,0,8.5-8.6V153.6A8.5,8.5,0,0,0,230.4,145.1Zm-8.5,85.3H170.7V162.1h51.2Z"/><path d="M119.5,384H51.2a8.5,8.5,0,0,0-8.5,8.5v68.3a8.5,8.5,0,0,0,8.5,8.5h68.3a8.5,8.5,0,0,0,8.5-8.5V392.5A8.5,8.5,0,0,0,119.5,384Zm-8.6,68.3H59.7V401.1h51.2Z"/><path d="M119.5,247.5H51.2a8.5,8.5,0,0,0-8.5,8.5V358.4a8.5,8.5,0,0,0,8.5,8.5h68.3a8.5,8.5,0,0,0,8.5-8.5V256A8.5,8.5,0,0,0,119.5,247.5Zm-8.6,102.4H59.7V264.5h51.2Z"/><path d="M230.4,264.5H162.1a8.6,8.6,0,0,0-8.5,8.6V460.8a8.5,8.5,0,0,0,8.5,8.5h68.3a8.5,8.5,0,0,0,8.5-8.5V273.1A8.6,8.6,0,0,0,230.4,264.5Zm-8.5,187.8H170.7V281.6h51.2Z"/><path d="M460.8,145.1H392.5a8.5,8.5,0,0,0-8.5,8.5V290.1a8.6,8.6,0,0,0,8.5,8.6h68.3a8.6,8.6,0,0,0,8.5-8.6V153.6A8.5,8.5,0,0,0,460.8,145.1Zm-8.5,136.5H401.1V162.1h51.2Z"/><path d="M460.8,315.7H392.5a8.6,8.6,0,0,0-8.5,8.6V460.8a8.5,8.5,0,0,0,8.5,8.5h68.3a8.5,8.5,0,0,0,8.5-8.5V324.3A8.6,8.6,0,0,0,460.8,315.7Zm-8.5,136.6H401.1V332.8h51.2Z"/><path d="M349.9,384H281.6a8.5,8.5,0,0,0-8.5,8.5v68.3a8.5,8.5,0,0,0,8.5,8.5h68.3a8.5,8.5,0,0,0,8.5-8.5V392.5A8.5,8.5,0,0,0,349.9,384Zm-8.6,68.3H290.1V401.1h51.2Z"/></svg>